<?xml version="1.0" encoding="UTF-8"?>
<svg xmlns="http://www.w3.org/2000/svg" id="Layer_1" data-name="Layer 1" width="512" height="512" viewBox="0 0 24 24" fill="#575667"><path d="M12,14c-1.654,0-3,1.346-3,3s1.346,3,3,3,3-1.346,3-3-1.346-3-3-3Zm0,5c-1.103,0-2-.897-2-2s.897-2,2-2,2,.897,2,2-.897,2-2,2Zm6.854-12.146l-2.146,2.146,2.146,2.146-.707,.707-2.146-2.146-2.146,2.146-.707-.707,2.146-2.146-2.146-2.146,.707-.707,2.146,2.146,2.146-2.146,.707,.707Zm-10.854,2.854l-2.146,2.146-.707-.707,2.146-2.146-2.146-2.146,.707-.707,2.146,2.146,2.146-2.146,.707,.707-2.146,2.146,2.146,2.146-.707,.707-2.146-2.146ZM12,0C5.383,0,0,5.383,0,12s5.383,12,12,12,12-5.383,12-12S18.617,0,12,0Zm0,23c-6.065,0-11-4.935-11-11S5.935,1,12,1s11,4.935,11,11-4.935,11-11,11Z"/></svg>
