<?xml version="1.0" encoding="UTF-8"?>
<svg xmlns="http://www.w3.org/2000/svg" id="Layer_1" data-name="Layer 1" width="512" height="512" viewBox="0 0 24 24" fill="#4F87FF"><path d="M12,0C5.383,0,0,5.383,0,12s5.383,12,12,12,12-5.383,12-12S18.617,0,12,0Zm0,23c-6.065,0-11-4.935-11-11S5.935,1,12,1s11,4.935,11,11-4.935,11-11,11Zm-5-7h2v.5c0,1.683,1.147,3.5,3,3.5s3-1.817,3-3.5v-.5h2v-1H7v1Zm7,.5c0,1.202-.765,2.5-2,2.5s-2-1.298-2-2.5v-.5h4v.5Zm-7-6.5c0-.552,.448-1,1-1s1,.448,1,1-.448,1-1,1-1-.448-1-1Zm10,0c0,.552-.448,1-1,1s-1-.448-1-1,.448-1,1-1,1,.448,1,1Z"/></svg>
