<?xml version="1.0" encoding="UTF-8"?>
<svg xmlns="http://www.w3.org/2000/svg" id="Layer_1" data-name="Layer 1" viewBox="0 0 24 24" width="512" height="512" fill="#FFA5EA"><path d="M5.262,9.01l-.845-.535c.95-1.5,2.379-2.688,4.132-3.435l.393,.92c-1.566,.668-2.838,1.723-3.68,3.05Zm10.184-3.97l-.392,.92c1.579,.673,2.877,1.73,3.755,3.058l.834-.551c-.987-1.492-2.438-2.677-4.198-3.427Zm-4.623,5.74l-.711-.703c-1.421,1.436-3.326,1.081-4.396,.022l-.703,.711c.754,.746,1.82,1.227,2.936,1.227,.979,0,1.997-.37,2.874-1.257Zm5.5,.222c-.603,.039-1.505-.092-2.349-.945l-.711,.703c.996,1.008,2.067,1.249,2.865,1.249,.091,0,.178-.003,.261-.009,.991-.065,1.966-.505,2.675-1.206l-.703-.711c-.541,.534-1.283,.869-2.037,.919Zm-4.323,5.998c-2.53,0-4.646-1.854-4.667-1.873l-.666,.746c.097,.087,2.415,2.127,5.333,2.127s5.236-2.04,5.333-2.127l-.666-.746c-.021,.019-2.138,1.873-4.667,1.873Zm12-5c0,6.617-5.383,12-12,12S0,18.617,0,12,5.383,0,12,0s12,5.383,12,12Zm-1,0c0-6.065-4.935-11-11-11S1,5.935,1,12s4.935,11,11,11,11-4.935,11-11Z"/></svg>
