<?xml version="1.0" encoding="UTF-8"?>
<svg xmlns="http://www.w3.org/2000/svg" id="Layer_1" data-name="Layer 1" width="512" height="512" viewBox="0 0 24 24" fill="#47C286"><path d="M12,24C5.383,24,0,18.617,0,12S5.383,0,12,0s12,5.383,12,12-5.383,12-12,12ZM12,1C5.935,1,1,5.935,1,12s4.935,11,11,11,11-4.935,11-11S18.065,1,12,1ZM7.5,7c-1.431,0-2.5,2.112-2.5,4h1c0-1.43,.785-3,1.5-3s1.5,1.57,1.5,3h1c0-1.888-1.069-4-2.5-4Zm9,0c-1.431,0-2.5,2.112-2.5,4h1c0-1.43,.785-3,1.5-3s1.5,1.57,1.5,3h1c0-1.888-1.069-4-2.5-4Zm-4.499,13h-.012c-4.3,0-5.9-4.92-5.966-5.129l-.276-.875,.885,.243c.028,.007,2.805,.762,5.363,.762s5.345-.754,5.373-.762l.886-.242-.278,.876c-.066,.209-1.676,5.128-5.975,5.128Zm-4.663-4.563c.623,1.29,2.085,3.563,4.651,3.563h.012c2.565,0,4.033-2.273,4.658-3.564-1.079,.236-2.898,.564-4.664,.564s-3.581-.328-4.657-.563Z"/></svg>
